<svg xmlns="http://www.w3.org/2000/svg" xmlns:xlink="http://www.w3.org/1999/xlink" viewBox="121 178 48 48">
  <defs>
    <style>
      .cls-1 {
        clip-path: url(#clip-filters);
      }

      .cls-2 {
        fill: #fff;
      }
    </style>
    <clipPath id="clip-filters">
      <rect x="121" y="178" width="48" height="48"/>
    </clipPath>
  </defs>
  <g id="filters" class="cls-1">
    <g id="filter" transform="translate(130 185.999)">
      <g id="Group_1" data-name="Group 1" transform="translate(11.128 16.821)">
        <path id="Path_1" data-name="Path 1" class="cls-2" d="M14,21.064h8.371V35.453s-.182,1.5-1.686.362l-6.018-3.677s-.785-.181-.727-1.5Z" transform="translate(-13.934 -21.064)"/>
      </g>
      <g id="Group_2" data-name="Group 2" transform="translate(0 0.001)">
        <path id="Path_2" data-name="Path 2" class="cls-2" d="M12.039,15.373h6.2s.662.424,1.8-.9L30.4,3.394s.481-.481.244-2.353c0,0,.3-1.143-1.386-1.023H1.5A1.124,1.124,0,0,0,.117,1.041a2.933,2.933,0,0,0,.719,2.9L10.891,14.655S11.8,15.436,12.039,15.373Z" transform="translate(0 -0.001)"/>
      </g>
    </g>
  </g>
</svg>
