<?xml version="1.0" encoding="utf-8"?>
<!-- Generator: Adobe Illustrator 16.0.0, SVG Export Plug-In . SVG Version: 6.00 Build 0)  -->
<!DOCTYPE svg PUBLIC "-//W3C//DTD SVG 1.1//EN" "http://www.w3.org/Graphics/SVG/1.1/DTD/svg11.dtd">
<svg version="1.1" id="Capa_1" xmlns="http://www.w3.org/2000/svg" xmlns:xlink="http://www.w3.org/1999/xlink" x="0px" y="0px"
	 width="62.231px" height="62.231px" viewBox="0 0 62.231 62.231" enable-background="new 0 0 62.231 62.231" xml:space="preserve">
<g>
	<path fill="#FFFFFF" d="M41.748,16.845L40.73,15.11c-0.646-0.919-1.236-1.347-1.859-1.347c-0.874,0-1.366,0.856-1.52,1.59
		l-0.016,6.157l2.975,2.974l1.438,1.277V16.845z"/>
	<polygon fill="#FFFFFF" points="32.052,4.318 33.6,4.318 35.097,6.005 35.097,8.862 36.683,8.862 42.383,14.565 42.383,27.327 
		54.148,40.312 52.37,41.96 52.37,50.981 62.231,59.835 62.231,0 32.052,0 	"/>
	<path fill="#FFFFFF" d="M31.019,21.248l4.408-2.309l1.567,1.524v-5.518c-0.034-1.102-0.702-3.184-2.919-3.184
		c-0.002,0-0.005,0-0.007,0c0,0-0.103-0.014-0.276-0.014c-1.26,0-2.692,0.681-2.951,2.694L31.019,21.248z"/>
	<path fill="#FFFFFF" d="M47.895,45.012L47.895,45.012c0.224,0,0.431-0.053,0.614-0.158c1.552-0.889,0.146-4.313-0.932-6.195
		c-1.083-1.891-2.848-4.101-4.255-4.101c-0.224,0-0.431,0.053-0.614,0.159c-1.555,0.89-0.145,4.311,0.932,6.193
		C44.725,42.801,46.487,45.012,47.895,45.012z M47.895,44.339L47.895,44.339v0.011V44.339z"/>
	<path fill="#FFFFFF" d="M30.025,14.668c-0.088-0.787-0.565-2.12-1.822-2.12c-0.792,0-1.677,0.576-2.73,1.791l-1.111,1.451v8.435
		l5.668-3.419L30.025,14.668z"/>
	<polygon fill="#FFFFFF" points="0,59.685 0,62.231 62.231,62.231 62.231,60.734 41.729,42.024 	"/>
	<polygon fill="#FFFFFF" points="12.005,37.877 7.59,32.98 22.99,24.951 22.99,13.631 28.681,8.963 28.681,5.636 31.177,4.188 
		31.177,0 0,0 0,57.743 10.652,52.57 	"/>
	<path fill="#FFFFFF" d="M17.822,38.935c-0.497,1.638-0.283,3.08,0.599,4.059c0.667,0.739,1.646,1.13,2.831,1.13
		c1.829,0,3.98-0.953,5.754-2.549c3.051-2.75,4.063-6.436,2.302-8.39c-0.667-0.739-1.646-1.13-2.828-1.13
		c-1.833,0-3.982,0.954-5.754,2.55C19.314,35.875,18.283,37.413,17.822,38.935z"/>
</g>
</svg>
