<?xml version="1.0" encoding="utf-8"?>
<!-- Generator: Adobe Illustrator 16.0.0, SVG Export Plug-In . SVG Version: 6.00 Build 0)  -->
<!DOCTYPE svg PUBLIC "-//W3C//DTD SVG 1.1//EN" "http://www.w3.org/Graphics/SVG/1.1/DTD/svg11.dtd">
<svg version="1.1" id="Capa_1" xmlns="http://www.w3.org/2000/svg" xmlns:xlink="http://www.w3.org/1999/xlink" x="0px" y="0px"
	 width="652.851px" height="81.236px" viewBox="0 0 652.851 81.236" enable-background="new 0 0 652.851 81.236"
	 xml:space="preserve">
<g>
	<path fill="#FFFFFF" d="M54.386,22.111l-1.326-2.261c-0.843-1.197-1.61-1.754-2.423-1.754c-1.139,0-1.778,1.115-1.979,2.072
		l-0.021,8.021l3.874,3.872l1.874,1.665V22.111z"/>
	<polygon fill="#FFFFFF" points="41.754,5.793 43.77,5.793 45.721,7.991 45.721,11.712 47.786,11.712 55.213,19.141 55.213,35.766 
		70.539,52.681 68.223,54.829 68.223,66.581 81.068,78.114 81.068,0.168 41.754,0.168 	"/>
	<path fill="#FFFFFF" d="M40.408,27.847l5.742-3.007l2.041,1.986v-7.188c-0.043-1.435-0.913-4.148-3.801-4.148
		c-0.002,0-0.007,0-0.01,0c0,0-0.135-0.018-0.359-0.018c-1.642,0-3.508,0.887-3.846,3.509L40.408,27.847z"/>
	<path fill="#FFFFFF" d="M62.393,58.804c0.291,0,0.561-0.069,0.799-0.207c2.021-1.158,0.189-5.618-1.213-8.07
		c-1.41-2.464-3.709-5.342-5.543-5.342c-0.291,0-0.561,0.069-0.799,0.207c-2.025,1.159-0.189,5.616,1.213,8.068
		C58.262,55.924,60.559,58.804,62.393,58.804z"/>
	<path fill="#FFFFFF" d="M39.115,19.276c-0.115-1.025-0.738-2.763-2.375-2.763c-1.032,0-2.184,0.75-3.557,2.333l-1.447,1.89v10.987
		l7.383-4.454L39.115,19.276z"/>
	<polygon fill="#FFFFFF" points="0,77.918 0,81.236 81.068,81.236 81.068,79.285 54.361,54.912 	"/>
	<polygon fill="#FFFFFF" points="15.638,49.51 9.888,43.13 29.949,32.671 29.949,17.924 37.363,11.843 37.363,7.509 40.615,5.624 
		40.615,0.168 0,0.168 0,75.388 13.877,68.649 	"/>
	<path fill="#FFFFFF" d="M23.217,50.888c-0.646,2.133-0.368,4.011,0.779,5.287c0.869,0.963,2.145,1.472,3.689,1.472
		c2.383,0,5.185-1.241,7.495-3.321c3.974-3.583,5.291-8.383,2.999-10.93c-0.87-0.962-2.146-1.472-3.686-1.472
		c-2.387,0-5.188,1.242-7.495,3.322C25.16,46.902,23.816,48.905,23.217,50.888z"/>
	<polygon fill="#FFFFFF" points="113.162,23.358 117.087,23.358 117.087,3.889 125.151,3.889 125.151,0.445 105.097,0.445 
		105.097,3.889 113.162,3.889 	"/>
	<polygon fill="#FFFFFF" points="148.68,9.646 136.667,9.646 136.667,0.445 132.742,0.445 132.742,23.358 136.667,23.358 
		136.667,13.09 148.68,13.09 148.68,23.358 152.604,23.358 152.604,0.445 148.68,0.445 	"/>
	<polygon fill="#FFFFFF" points="177.451,19.914 167.443,19.914 167.443,13.268 176.414,13.268 176.414,9.823 167.443,9.823 
		167.443,3.889 177.288,3.889 177.288,0.445 163.518,0.445 163.518,23.358 177.451,23.358 	"/>
	<path fill="#FFFFFF" d="M213.898,10.468l-5.643-1.278c-2.5-0.55-2.822-1.567-2.822-2.393c0-2.771,2.686-3.353,4.938-3.353
		c2.44,0,5.335,1.058,5.454,4.04l0.031,0.827h3.888l0.005-0.855c0.015-1.856-0.645-3.51-1.909-4.783
		C216.152,0.974,213.422,0,210.336,0c-6.967,0-8.828,4.291-8.828,6.826c0,4.121,3.359,5.366,5.89,5.945l5.149,1.158
		c2.75,0.613,4.087,1.591,4.087,2.988c0,2.601-3.544,3.442-5.261,3.442c-2.665,0-4.554-0.551-5.617-1.636
		c-0.748-0.767-1.099-1.807-1.068-3.182l0.022-0.88h-3.905l-0.04,0.818c-0.114,2.263,0.513,4.128,1.858,5.546
		c1.729,1.816,4.576,2.777,8.234,2.777c9.002,0,9.704-5.293,9.704-6.916C220.562,12.645,217.009,11.23,213.898,10.468z"/>
	<path fill="#FFFFFF" d="M248.16,14.525l0.112-0.964h-3.942l-0.087,0.766c-0.408,3.665-2.983,6.033-6.56,6.033
		c-5.795,0-7.851-4.555-7.851-8.457c0-3.902,2.056-8.458,7.851-8.458c3.152,0,5.609,1.755,6.256,4.473l0.156,0.662h3.865
		l-0.127-0.973C247.149,2.38,242.092,0,237.684,0c-8.138,0-11.778,5.979-11.778,11.903c0,5.923,3.641,11.899,11.778,11.899
		C243.467,23.802,247.48,20.247,248.16,14.525z"/>
	<polygon fill="#FFFFFF" points="271.521,9.646 259.51,9.646 259.51,0.445 255.584,0.445 255.584,23.358 259.51,23.358 
		259.51,13.09 271.521,13.09 271.521,23.358 275.445,23.358 275.445,0.445 271.521,0.445 	"/>
	<path fill="#FFFFFF" d="M296.799,23.802c8.113,0,11.746-5.976,11.746-11.899C308.545,5.979,304.912,0,296.799,0
		c-8.137,0-11.777,5.979-11.777,11.903C285.021,17.826,288.662,23.802,296.799,23.802z M296.799,3.444
		c5.772,0,7.82,4.557,7.82,8.458c0,3.901-2.048,8.457-7.82,8.457c-5.794,0-7.85-4.555-7.85-8.457
		C288.949,8.001,291.005,3.444,296.799,3.444z"/>
	<path fill="#FFFFFF" d="M341.233,11.903C341.233,5.979,337.604,0,329.49,0c-8.137,0-11.778,5.979-11.778,11.903
		c0,5.923,3.642,11.899,11.778,11.899C337.604,23.802,341.233,17.826,341.233,11.903z M329.49,20.359
		c-5.797,0-7.853-4.555-7.853-8.457c0-3.902,2.056-8.458,7.853-8.458c5.77,0,7.817,4.557,7.817,8.458
		C337.308,15.804,335.26,20.359,329.49,20.359z"/>
	<polygon fill="#FFFFFF" points="368.422,19.914 355.465,19.914 355.465,0.445 351.539,0.445 351.539,23.358 368.422,23.358 	"/>
	<path fill="#FFFFFF" d="M398.963,23.358c7.5-0.16,11.465-4.121,11.465-11.455c0-7.334-3.965-11.296-11.484-11.458h-8.863v22.913
		h8.872H398.963z M394.006,19.914V3.889h3.944c6.156,0,8.555,2.246,8.555,8.014c0,5.765-2.398,8.011-8.663,8.011H394.006z"/>
	<rect x="420.004" y="0.445" fill="#FFFFFF" width="3.923" height="22.913"/>
	<path fill="#FFFFFF" d="M450.992,16.886c0-4.242-3.553-5.656-6.664-6.418l-5.64-1.278c-2.5-0.55-2.822-1.567-2.822-2.393
		c0-2.771,2.686-3.353,4.937-3.353c2.442,0,5.335,1.058,5.454,4.04l0.033,0.827h3.886l0.006-0.855
		c0.016-1.856-0.646-3.51-1.91-4.783C446.586,0.974,443.852,0,440.77,0c-6.971,0-8.828,4.291-8.828,6.826
		c0,4.121,3.357,5.366,5.887,5.945l5.152,1.158c2.749,0.613,4.084,1.591,4.084,2.988c0,2.601-3.542,3.442-5.258,3.442
		c-2.666,0-4.557-0.551-5.618-1.636c-0.75-0.767-1.099-1.807-1.067-3.182l0.02-0.88h-3.903l-0.04,0.818
		c-0.114,2.263,0.512,4.128,1.858,5.546c1.729,1.817,4.576,2.777,8.232,2.777C450.292,23.802,450.992,18.509,450.992,16.886z"/>
	<polygon fill="#FFFFFF" points="455.912,3.889 463.977,3.889 463.977,23.358 467.902,23.358 467.902,3.889 475.967,3.889 
		475.967,0.445 455.912,0.445 	"/>
	<path fill="#FFFFFF" d="M487.299,13.95l7.526-0.001l0.234-0.004c2.947,0,3.29,2.009,3.506,5.322l0.026,0.425
		c0.056,1.005,0.133,2.38,0.73,3.281l0.256,0.386h4.841l-1.311-1.442c-0.631-0.692-0.748-2.984-0.81-4.215l-0.037-0.691
		c-0.106-1.626-0.497-3.685-2.384-4.812c1.794-1.094,2.838-3.002,2.838-5.372c0-3.936-3.022-6.381-7.891-6.381h-11.451v22.913h3.925
		V13.95z M487.299,3.889h7.365c1.883,0,4.126,0.583,4.126,3.354c0,2.242-2.14,3.264-4.126,3.264h-7.365V3.889z"/>
	<rect x="511.193" y="0.445" fill="#FFFFFF" width="3.925" height="22.913"/>
	<path fill="#FFFFFF" d="M546.066,14.524l0.114-0.963h-3.942l-0.086,0.766c-0.408,3.665-2.983,6.033-6.561,6.033
		c-5.796,0-7.853-4.555-7.853-8.457c0-3.902,2.057-8.458,7.853-8.458c3.151,0,5.607,1.755,6.254,4.473l0.158,0.662h3.866
		l-0.128-0.973C545.056,2.38,540.001,0,535.592,0c-8.135,0-11.775,5.979-11.775,11.903c0,5.923,3.641,11.899,11.775,11.899
		C541.378,23.802,545.389,20.247,546.066,14.524z"/>
	<polygon fill="#FFFFFF" points="551.69,3.889 559.758,3.889 559.758,23.358 563.683,23.358 563.683,3.889 571.747,3.889 
		571.747,0.445 551.69,0.445 	"/>
	<path fill="#FFFFFF" d="M620.786,11.903C620.786,5.979,617.152,0,609.039,0c-8.133,0-11.773,5.979-11.773,11.903
		c0,5.923,3.641,11.899,11.773,11.899C617.152,23.802,620.786,17.826,620.786,11.903z M609.039,20.359
		c-5.794,0-7.851-4.555-7.851-8.457c0-3.902,2.057-8.458,7.851-8.458c5.771,0,7.822,4.557,7.822,8.458
		C616.861,15.804,614.811,20.359,609.039,20.359z"/>
	<polygon fill="#FFFFFF" points="633.151,13.268 642.197,13.268 642.197,9.823 633.151,9.823 633.151,3.889 643.59,3.889 
		643.59,0.445 629.226,0.445 629.226,23.358 633.151,23.358 	"/>
	<path fill="#FFFFFF" d="M126.711,38.635H109.65v41.65h5.199V63.175h11.861c7.216,0,11.699-4.702,11.699-12.271
		C138.41,43.336,133.927,38.635,126.711,38.635z M125.943,58.208H114.85V43.601h11.094c4.687,0,7.266,2.594,7.266,7.303
		C133.209,55.614,130.63,58.208,125.943,58.208z"/>
	<polygon fill="#FFFFFF" points="184.529,55.971 160.359,55.971 160.359,38.635 154.486,38.635 154.486,80.286 160.359,80.286 
		160.359,60.938 184.529,60.938 184.529,80.286 190.408,80.286 190.408,38.635 184.529,38.635 	"/>
	<rect x="211.17" y="38.635" fill="#FFFFFF" width="5.877" height="41.65"/>
	<path fill="#FFFFFF" d="M296.27,38.635l-18.344,41.65h6.35l5.252-12.415h18.706l5.313,12.415h6.332l-17.837-41.65H296.27z
		 M291.541,62.907l7.416-17.379l7.153,17.379H291.541z"/>
	<path fill="#FFFFFF" d="M352.965,38.635h-15.943v41.65h15.952h0.009c13.654-0.289,20.873-7.49,20.873-20.824
		C373.855,46.128,366.637,38.927,352.965,38.635z M351.103,75.321l-8.206-0.001V43.601l8.206-0.001
		c11.987,0,16.878,4.595,16.878,15.861C367.98,70.727,363.09,75.321,351.103,75.321z"/>
	<polygon fill="#FFFFFF" points="400.066,61.273 417.626,61.273 417.626,56.306 400.066,56.306 400.066,43.601 419.271,43.601 
		419.271,38.635 394.19,38.635 394.19,80.286 419.578,80.286 419.578,75.32 400.066,75.32 	"/>
	<polygon fill="#FFFFFF" points="445.376,38.635 439.5,38.635 439.5,80.286 466.21,80.286 466.21,75.32 445.376,75.32 	"/>
	<polygon fill="#FFFFFF" points="245.543,38.635 239.667,38.635 239.667,80.286 266.377,80.286 266.377,75.32 245.543,75.32 	"/>
	<path fill="#FFFFFF" d="M500.452,38.635H484.51v41.65h4.961V63.175h10.981c6.756,0,10.948-4.702,10.948-12.271
		C511.4,43.336,507.208,38.635,500.452,38.635z M499.739,58.208h-10.269V43.601h10.269c4.322,0,6.703,2.594,6.703,7.303
		C506.442,55.614,504.062,58.208,499.739,58.208z"/>
	<polygon fill="#FFFFFF" points="559.001,55.971 534.833,55.971 534.833,38.635 528.957,38.635 528.957,80.286 534.833,80.286 
		534.833,60.938 559.001,60.938 559.001,80.286 564.877,80.286 564.877,38.635 559.001,38.635 	"/>
	<rect x="587.594" y="38.635" fill="#FFFFFF" width="5.874" height="41.65"/>
	<path fill="#FFFFFF" d="M635.016,38.635h-5.77l-18.347,41.65h6.348l5.254-12.415h18.706l5.309,12.415h6.335L635.016,38.635z
		 M624.513,62.907l7.418-17.379l7.153,17.379H624.513z"/>
</g>
</svg>
