<?xml version="1.0" encoding="utf-8"?>
<!-- Generator: Adobe Illustrator 16.0.0, SVG Export Plug-In . SVG Version: 6.00 Build 0)  -->
<!DOCTYPE svg PUBLIC "-//W3C//DTD SVG 1.1//EN" "http://www.w3.org/Graphics/SVG/1.1/DTD/svg11.dtd">
<svg version="1.1" id="Capa_1" xmlns="http://www.w3.org/2000/svg" xmlns:xlink="http://www.w3.org/1999/xlink" x="0px" y="0px"
	 width="30.744px" height="30.744px" viewBox="0 0 30.744 30.744" enable-background="new 0 0 30.744 30.744" xml:space="preserve">
<g>
	<path fill-rule="evenodd" clip-rule="evenodd" d="M16.306,30.744c-0.622,0-1.244,0-1.866,0c-0.371-0.049-0.742-0.1-1.114-0.147
		c-1.738-0.216-3.386-0.735-4.94-1.535c-2.219-1.141-4.06-2.726-5.514-4.759c-1.479-2.069-2.391-4.361-2.724-6.883
		C0.098,17.048,0.049,16.677,0,16.305c0-0.622,0-1.244,0-1.866c0.016-0.071,0.036-0.142,0.047-0.213
		c0.116-0.759,0.191-1.527,0.354-2.276c0.557-2.563,1.745-4.815,3.476-6.776C4.848,4.071,5.964,3.13,7.215,2.349
		c1.88-1.173,3.912-1.916,6.11-2.202C13.697,0.098,14.068,0.049,14.439,0c0.622,0,1.244,0,1.866,0
		c0.371,0.049,0.742,0.1,1.114,0.146c1.729,0.217,3.37,0.731,4.918,1.524c2.229,1.142,4.078,2.73,5.536,4.771
		c1.483,2.076,2.397,4.375,2.726,6.907c0.047,0.364,0.096,0.728,0.145,1.091c0,0.622,0,1.244,0,1.866
		c-0.016,0.071-0.035,0.142-0.046,0.214c-0.117,0.767-0.205,1.54-0.358,2.3c-0.246,1.233-0.691,2.403-1.266,3.521
		c-1.145,2.228-2.732,4.077-4.771,5.535c-2.068,1.479-4.361,2.391-6.883,2.723C17.048,30.646,16.677,30.694,16.306,30.744z
		 M28.823,15.155C28.707,7.77,22.559,1.698,14.947,1.926C7.73,2.142,1.736,8.168,1.926,15.736
		c0.184,7.262,6.252,13.307,13.872,13.08C23.036,28.6,28.93,22.586,28.823,15.155z"/>
	<path fill-rule="evenodd" clip-rule="evenodd" d="M6.721,9.675c-0.068-0.533,0.2-1.086,0.721-1.545
		c0.25-0.221,0.483-0.464,0.712-0.71c0.962-1.034,2.456-0.847,3.329,0.201c0.362,0.436,0.471,0.962,0.617,1.478
		c0.156,0.55,0.314,1.102,0.425,1.662c0.142,0.71-0.063,1.344-0.559,1.874c-0.21,0.228-0.446,0.434-0.652,0.664
		c-0.057,0.063-0.092,0.194-0.067,0.272c0.864,2.812,2.688,4.729,5.428,5.779c0.637,0.244,0.656,0.248,1.131-0.273
		c0.524-0.575,1.137-0.936,1.931-0.894c0.267,0.015,0.53,0.09,0.79,0.159c0.609,0.161,1.218,0.323,1.818,0.505
		c1.187,0.358,2.152,1.816,1.412,3.205c-0.091,0.17-0.224,0.322-0.359,0.462c-0.351,0.365-0.705,0.729-1.074,1.076
		c-0.304,0.285-0.686,0.417-1.097,0.42c-1.251,0.01-2.478-0.165-3.687-0.483c-2.582-0.682-4.81-1.98-6.678-3.882
		c-1.403-1.429-2.454-3.091-3.172-4.964C7.094,13.122,6.789,11.508,6.721,9.675z"/>
</g>
</svg>
