<?xml version="1.0" encoding="utf-8"?>
<!-- Generator: Adobe Illustrator 16.0.0, SVG Export Plug-In . SVG Version: 6.00 Build 0)  -->
<!DOCTYPE svg PUBLIC "-//W3C//DTD SVG 1.1//EN" "http://www.w3.org/Graphics/SVG/1.1/DTD/svg11.dtd">
<svg version="1.1" id="Capa_1" xmlns="http://www.w3.org/2000/svg" xmlns:xlink="http://www.w3.org/1999/xlink" x="0px" y="0px"
	 width="95.334px" height="116.355px" viewBox="0 0 95.334 116.355" enable-background="new 0 0 95.334 116.355"
	 xml:space="preserve">
<g>
	<g>
		<path fill-rule="evenodd" clip-rule="evenodd" fill="#398636" d="M79.664,24.632c-0.158,0.678-0.296,1.361-0.476,2.033
			c-0.506,1.896-1.394,3.603-2.769,5.002c-3.459,3.519-6.956,7-10.438,10.496c-2.396,2.405-4.795,4.808-7.188,7.217
			c-2.666,2.684-5.861,4.092-9.671,3.938c-3.464-0.14-6.325-1.601-8.722-4.072c-1.621-1.672-3.291-3.296-4.938-4.942
			c-0.135-0.135-0.262-0.278-0.367-0.391c1.957-1.951,3.898-3.887,5.852-5.832c1.74,1.738,3.56,3.51,5.322,5.334
			c1.334,1.381,2.871,2.047,4.731,1.384c0.712-0.253,1.382-0.764,1.934-1.3c2.296-2.229,4.54-4.511,6.802-6.775
			c2.213-2.217,4.424-4.436,6.637-6.651c1.223-1.226,2.447-2.45,3.679-3.669c1.645-1.628,1.826-4.111,0.26-5.775
			c-2.005-2.129-4.077-4.201-6.208-6.205c-1.661-1.564-4.109-1.42-5.734,0.199c-1.969,1.963-3.928,3.938-5.887,5.91
			c-0.195,0.195-0.364,0.279-0.641,0.125c-2.747-1.528-5.696-2.203-8.835-2.071c-0.048,0.002-0.097-0.029-0.22-0.068
			c0.633-0.642,1.234-1.257,1.842-1.865c2.25-2.255,4.522-4.487,6.748-6.767c1.807-1.85,3.738-3.495,6.277-4.24
			c0.8-0.235,1.624-0.392,2.436-0.584c0.843,0,1.686,0,2.526,0c0.218,0.055,0.433,0.127,0.653,0.162
			c2.526,0.398,4.748,1.438,6.586,3.223c1.959,1.901,3.855,3.865,5.812,5.77c1.869,1.82,3.152,3.953,3.697,6.515
			c0.099,0.459,0.198,0.918,0.298,1.376C79.664,22.948,79.664,23.79,79.664,24.632z"/>
		<path fill-rule="evenodd" clip-rule="evenodd" fill="#398636" d="M13.797,51.357c0.152-0.661,0.289-1.326,0.461-1.981
			c0.504-1.916,1.398-3.637,2.785-5.051c3.074-3.138,6.187-6.238,9.285-9.352c2.78-2.791,5.556-5.586,8.345-8.366
			c3.468-3.457,7.597-4.688,12.368-3.524c2.318,0.566,4.246,1.857,5.916,3.553c1.695,1.721,3.414,3.419,5.121,5.129
			c0.11,0.11,0.207,0.234,0.292,0.33c-1.95,1.941-3.883,3.865-5.872,5.846c-0.95-0.963-1.951-1.982-2.957-2.994
			c-0.89-0.895-1.804-1.766-2.674-2.678c-1.649-1.728-4.402-1.859-6.384,0.213c-2.017,2.111-4.122,4.139-6.187,6.207
			c-1.828,1.832-3.651,3.67-5.48,5.502c-1.792,1.795-3.584,3.592-5.385,5.377c-1.678,1.662-1.866,4.105-0.271,5.806
			c1.99,2.12,4.051,4.181,6.17,6.171c1.695,1.594,4.121,1.454,5.773-0.191c1.959-1.949,3.906-3.911,5.853-5.874
			c0.21-0.212,0.385-0.299,0.681-0.135c2.718,1.501,5.633,2.181,8.734,2.064c0.08-0.003,0.16,0.032,0.363,0.077
			c-1.076,1.057-2.091,2.039-3.091,3.036c-1.849,1.839-3.712,3.665-5.526,5.538c-1.8,1.857-3.725,3.512-6.262,4.266
			c-0.817,0.242-1.658,0.404-2.488,0.604c-0.841,0-1.684,0-2.525,0c-0.2-0.053-0.398-0.121-0.602-0.153
			c-2.547-0.394-4.787-1.438-6.637-3.233c-2.096-2.035-4.161-4.104-6.213-6.185c-1.643-1.667-2.76-3.642-3.256-5.947
			c-0.109-0.51-0.225-1.019-0.338-1.527C13.797,53.041,13.797,52.199,13.797,51.357z"/>
	</g>
</g>
<g>
	<text transform="matrix(1 0 0 1 6.916 105.3555)" fill="#398636" font-family="Arial" font-size="23">(50-74%)</text>
</g>
</svg>
