<?xml version="1.0" encoding="utf-8"?>
<!-- Generator: Adobe Illustrator 16.0.0, SVG Export Plug-In . SVG Version: 6.00 Build 0)  -->
<!DOCTYPE svg PUBLIC "-//W3C//DTD SVG 1.1//EN" "http://www.w3.org/Graphics/SVG/1.1/DTD/svg11.dtd">
<svg version="1.1" id="Capa_1" xmlns="http://www.w3.org/2000/svg" xmlns:xlink="http://www.w3.org/1999/xlink" x="0px" y="0px"
	 width="95.334px" height="116.355px" viewBox="0 0 95.334 116.355" enable-background="new 0 0 95.334 116.355"
	 xml:space="preserve">
<g>
	<g>
		<path fill-rule="evenodd" clip-rule="evenodd" fill="#F9B233" d="M47.291,14.481c17.32,0.897,30.11,8.734,37.876,24.355
			c0.361,0.727,0.375,1.943,0.014,2.663c-7.84,15.612-20.533,24.165-37.996,24.142c-17.39-0.022-30.032-8.565-37.846-24.109
			c-0.364-0.723-0.372-1.941-0.015-2.663C17.112,23.175,29.961,15.337,47.291,14.481z M47.235,56.491
			c12.894-0.268,23.595-5.2,32.087-14.938c0.883-1.013,0.9-1.654,0.026-2.712c-16.414-19.855-47.71-19.869-64.168-0.025
			c-0.855,1.029-0.927,1.672-0.021,2.711C23.646,51.27,34.341,56.213,47.235,56.491z"/>
		<path fill-rule="evenodd" clip-rule="evenodd" fill="#F9B233" d="M53.983,28.644c-1.951,0.928-3.068,2.256-2.8,4.375
			c0.211,1.656,1.47,2.949,3.125,3.211c2.186,0.344,3.547-0.811,4.455-2.681c3.455,4.382,2.325,12.216-2.334,16.528
			c-5.195,4.808-13.18,4.802-18.368-0.014c-5.125-4.756-5.751-12.654-1.441-18.186C40.746,26.58,48.518,25.062,53.983,28.644z"/>
	</g>
</g>
<g>
	<text transform="matrix(1 0 0 1 9.0605 105.3555)" fill="#F9B233" font-family="Arial" font-size="23">(25-49%)</text>
</g>
</svg>
