<?xml version="1.0" encoding="utf-8"?>
<!-- Generator: Adobe Illustrator 16.0.0, SVG Export Plug-In . SVG Version: 6.00 Build 0)  -->
<!DOCTYPE svg PUBLIC "-//W3C//DTD SVG 1.1//EN" "http://www.w3.org/Graphics/SVG/1.1/DTD/svg11.dtd">
<svg version="1.1" id="Capa_1" xmlns="http://www.w3.org/2000/svg" xmlns:xlink="http://www.w3.org/1999/xlink" x="0px" y="0px"
	 width="30.744px" height="30.744px" viewBox="0 0 30.744 30.744" enable-background="new 0 0 30.744 30.744" xml:space="preserve">
<path fill-rule="evenodd" clip-rule="evenodd" d="M14.406,6.855c0.645,0,1.287,0,1.932,0C16.474,6.905,16.605,6.977,16.746,7
	c2.141,0.35,3.847,1.417,5.234,3.069c1.066,1.269,1.543,2.772,1.908,4.337c0,0.644,0,1.288,0,1.932
	c-0.053,0.161-0.126,0.318-0.154,0.483c-0.377,2.17-1.488,3.884-3.185,5.265c-1.238,1.008-2.705,1.442-4.212,1.802
	c-0.645,0-1.287,0-1.932,0c-0.136-0.049-0.268-0.121-0.408-0.144c-2.141-0.35-3.847-1.417-5.234-3.069
	c-1.066-1.269-1.543-2.772-1.908-4.337c0-0.644,0-1.288,0-1.932c0.053-0.161,0.126-0.318,0.154-0.483
	c0.377-2.17,1.488-3.885,3.185-5.265C11.433,7.65,12.899,7.216,14.406,6.855z M11.464,14.822c1.004,0,1.955,0.014,2.904-0.015
	c0.15-0.004,0.378-0.173,0.429-0.316c0.447-1.258-0.037-1.981-1.297-1.981C11.451,12.51,11.451,12.51,11.464,14.822z M19.304,14.821
	c0-0.286,0.007-0.4-0.001-0.515c-0.109-1.796-0.109-1.796-1.869-1.796c-1.563,0-1.836,0.331-1.496,1.88
	c0.037,0.166,0.271,0.405,0.423,0.411C17.311,14.84,18.264,14.821,19.304,14.821z M11.446,15.923c0,0.31-0.008,0.454,0.002,0.597
	c0.115,1.714,0.116,1.714,1.857,1.714c1.571,0,1.836-0.318,1.5-1.876c-0.034-0.167-0.268-0.409-0.417-0.415
	C13.438,15.904,12.484,15.923,11.446,15.923z M19.356,15.926c-1.092,0-2.071-0.019-3.048,0.021
	c-0.136,0.005-0.357,0.288-0.371,0.456c-0.047,0.57-0.018,1.146-0.018,1.827c0.971,0,1.838,0.025,2.701-0.021
	c0.181-0.01,0.461-0.259,0.502-0.441C19.246,17.211,19.274,16.634,19.356,15.926z M12.048,11.351c0.991,0,1.826,0,2.724,0
	c0-1.081,0-2.11,0-3.263C13.197,8.681,12.605,9.924,12.048,11.351z M18.702,11.354c-0.573-1.431-1.154-2.683-2.725-3.26
	c0,1.153,0,2.183,0,3.26C16.879,11.354,17.715,11.354,18.702,11.354z M14.783,19.413c-0.946,0-1.793,0-2.74,0
	c0.582,1.409,1.154,2.666,2.74,3.237C14.783,21.5,14.783,20.491,14.783,19.413z M15.987,19.382c0,1.112,0,2.139,0,3.294
	c1.551-0.658,2.188-1.859,2.696-3.294C17.74,19.382,16.908,19.382,15.987,19.382z M10.509,12.603
	c-2.104-0.289-2.51,0.086-2.381,2.224c0.562,0,1.138,0.036,1.703-0.021c0.183-0.019,0.452-0.261,0.488-0.44
	C10.431,13.804,10.449,13.223,10.509,12.603z M20.237,12.617c0.06,0.63,0.085,1.21,0.187,1.775c0.029,0.164,0.268,0.399,0.427,0.412
	c0.595,0.049,1.196,0.02,1.789,0.02C22.676,12.678,22.23,12.279,20.237,12.617z M8.102,15.921c0.152,2.458,0.325,2.551,2.402,2.154
	c-0.055-0.57-0.081-1.149-0.183-1.715c-0.03-0.166-0.264-0.405-0.419-0.418C9.307,15.892,8.705,15.921,8.102,15.921z M22.637,15.921
	c-0.592,0-1.193-0.029-1.788,0.02c-0.158,0.013-0.397,0.249-0.425,0.413c-0.101,0.587-0.125,1.187-0.179,1.775
	C22.231,18.464,22.672,18.068,22.637,15.921z M9.188,11.127c0.06,0.113,0.118,0.226,0.177,0.339
	c0.521-0.081,1.272,0.022,1.514-0.281c0.502-0.63,0.735-1.477,1.078-2.234c-0.069-0.055-0.139-0.11-0.208-0.166
	C10.896,9.566,10.042,10.347,9.188,11.127z M11.771,21.967c0.074-0.066,0.147-0.133,0.222-0.199
	c-0.218-0.423-0.457-0.836-0.649-1.271c-0.584-1.333-0.58-1.337-2.271-0.991C10.047,20.396,10.909,21.181,11.771,21.967z
	 M21.556,19.626c-0.064-0.129-0.128-0.258-0.191-0.387c-0.532,0.122-1.273,0.071-1.55,0.405c-0.492,0.593-0.702,1.419-1.031,2.147
	c0.063,0.058,0.124,0.115,0.186,0.172C19.831,21.185,20.693,20.405,21.556,19.626z M19.002,8.787
	c-0.075,0.065-0.152,0.131-0.229,0.197c0.218,0.435,0.458,0.86,0.65,1.306c0.544,1.267,0.537,1.271,2.257,0.965
	C20.707,10.358,19.854,9.573,19.002,8.787z"/>
<path fill-rule="evenodd" clip-rule="evenodd" d="M16.305,30.744c-0.622,0-1.243,0-1.865,0c-0.372-0.049-0.743-0.1-1.114-0.147
	c-1.739-0.216-3.386-0.735-4.94-1.535c-2.22-1.141-4.061-2.726-5.514-4.759c-1.479-2.069-2.391-4.361-2.725-6.883
	C0.098,17.048,0.049,16.677,0,16.305c0-0.622,0-1.244,0-1.866c0.016-0.071,0.035-0.142,0.047-0.213
	c0.116-0.759,0.19-1.527,0.353-2.276c0.558-2.563,1.746-4.815,3.476-6.776C4.848,4.071,5.963,3.13,7.214,2.349
	c1.88-1.173,3.913-1.916,6.111-2.202C13.696,0.098,14.067,0.049,14.439,0c0.622,0,1.243,0,1.865,0
	c0.372,0.049,0.743,0.1,1.114,0.146c1.729,0.217,3.37,0.731,4.919,1.524c2.229,1.142,4.078,2.73,5.535,4.771
	c1.484,2.076,2.397,4.375,2.727,6.907c0.047,0.364,0.096,0.728,0.145,1.091c0,0.622,0,1.244,0,1.866
	c-0.016,0.071-0.036,0.142-0.047,0.214c-0.117,0.767-0.205,1.54-0.357,2.3c-0.247,1.233-0.692,2.403-1.267,3.521
	c-1.144,2.228-2.731,4.077-4.771,5.535c-2.069,1.479-4.361,2.391-6.884,2.723C17.048,30.646,16.677,30.694,16.305,30.744z
	 M28.823,15.155C28.707,7.77,22.558,1.698,14.945,1.926C7.73,2.142,1.736,8.168,1.926,15.736c0.183,7.262,6.251,13.307,13.872,13.08
	C23.035,28.6,28.93,22.586,28.823,15.155z"/>
</svg>
