<?xml version="1.0" encoding="utf-8"?>
<!-- Generator: Adobe Illustrator 16.0.0, SVG Export Plug-In . SVG Version: 6.00 Build 0)  -->
<!DOCTYPE svg PUBLIC "-//W3C//DTD SVG 1.1//EN" "http://www.w3.org/Graphics/SVG/1.1/DTD/svg11.dtd">
<svg version="1.1" id="Capa_1" xmlns="http://www.w3.org/2000/svg" xmlns:xlink="http://www.w3.org/1999/xlink" x="0px" y="0px"
	 width="30.743px" height="30.744px" viewBox="0 0 30.743 30.744" enable-background="new 0 0 30.743 30.744" xml:space="preserve">
<path fill-rule="evenodd" clip-rule="evenodd" fill="#4285F4" d="M16.304,30.744c-0.621,0-1.242,0-1.865,0
	c-0.371-0.049-0.742-0.1-1.114-0.147c-1.738-0.216-3.386-0.735-4.94-1.535c-2.219-1.141-4.06-2.726-5.514-4.759
	c-1.479-2.069-2.391-4.361-2.724-6.883C0.097,17.048,0.049,16.677,0,16.305c0-0.622,0-1.244,0-1.866
	c0.016-0.071,0.035-0.142,0.046-0.213c0.117-0.759,0.19-1.527,0.354-2.276c0.557-2.563,1.746-4.815,3.477-6.776
	C4.848,4.071,5.963,3.13,7.214,2.349c1.88-1.173,3.912-1.916,6.11-2.202C13.696,0.098,14.066,0.049,14.438,0
	c0.623,0,1.244,0,1.865,0c0.373,0.049,0.743,0.1,1.115,0.146c1.729,0.217,3.369,0.731,4.918,1.524
	c2.229,1.142,4.078,2.73,5.536,4.771c1.483,2.076,2.398,4.375,2.726,6.907c0.047,0.364,0.097,0.728,0.145,1.091
	c0,0.622,0,1.244,0,1.866c-0.016,0.071-0.035,0.142-0.046,0.214c-0.118,0.767-0.205,1.54-0.357,2.3
	c-0.247,1.233-0.692,2.403-1.267,3.521c-1.145,2.228-2.732,4.077-4.771,5.535c-2.068,1.479-4.36,2.391-6.883,2.723
	C17.047,30.646,16.677,30.694,16.304,30.744z M28.822,15.155C28.706,7.77,22.558,1.698,14.946,1.926
	C7.729,2.142,1.736,8.168,1.925,15.736c0.183,7.262,6.252,13.307,13.873,13.08C23.035,28.6,28.929,22.586,28.822,15.155z"/>
<g>
	<g>
		<path fill-rule="evenodd" clip-rule="evenodd" fill="#4285F4" d="M15.371,21.818c-0.422-0.711-0.843-1.394-1.237-2.091
			c-0.857-1.524-1.724-3.045-2.545-4.591c-0.463-0.87-0.774-1.805-0.947-2.784c-0.483-2.737,1.365-5.287,4.114-5.657
			c2.906-0.392,5.509,1.964,5.415,4.894c-0.035,1.119-0.387,2.152-0.832,3.16c-0.667,1.508-1.514,2.92-2.349,4.338
			C16.458,19.989,15.923,20.889,15.371,21.818z M17.083,11.354c0.002-0.957-0.755-1.717-1.708-1.718
			c-0.946,0-1.712,0.753-1.716,1.689c-0.003,0.956,0.755,1.73,1.697,1.733C16.309,13.064,17.081,12.301,17.083,11.354z"/>
		<path fill-rule="evenodd" clip-rule="evenodd" fill="#4285F4" d="M13.14,20.54c-0.381,0.137-0.742,0.253-1.09,0.4
			c-0.171,0.072-0.332,0.187-0.471,0.313c-0.191,0.173-0.203,0.41-0.003,0.571c0.226,0.182,0.479,0.352,0.748,0.455
			c1.17,0.448,2.392,0.558,3.632,0.49c0.847-0.046,1.682-0.171,2.472-0.493c0.25-0.102,0.492-0.245,0.702-0.414
			c0.245-0.198,0.231-0.435-0.005-0.648c-0.362-0.326-0.825-0.44-1.274-0.581c-0.073-0.023-0.148-0.041-0.26-0.07
			c0.23-0.389,0.452-0.765,0.68-1.15c0.672,0.209,1.3,0.464,1.804,0.951c0.758,0.732,0.738,1.712-0.045,2.423
			c-0.541,0.491-1.195,0.766-1.89,0.94c-2.089,0.524-4.164,0.508-6.208-0.222c-0.535-0.191-1.022-0.472-1.403-0.909
			c-0.569-0.655-0.553-1.506,0.043-2.137c0.495-0.523,1.131-0.799,1.801-1.011c0.041-0.013,0.124,0.019,0.148,0.056
			C12.729,19.845,12.932,20.19,13.14,20.54z"/>
	</g>
</g>
</svg>
