<?xml version="1.0" encoding="utf-8"?>
<!-- Generator: Adobe Illustrator 16.0.0, SVG Export Plug-In . SVG Version: 6.00 Build 0)  -->
<!DOCTYPE svg PUBLIC "-//W3C//DTD SVG 1.1//EN" "http://www.w3.org/Graphics/SVG/1.1/DTD/svg11.dtd">
<svg version="1.1" id="Capa_1" xmlns="http://www.w3.org/2000/svg" xmlns:xlink="http://www.w3.org/1999/xlink" x="0px" y="0px" width="72px" height="72px" viewBox="0 0 72 72" enable-background="new 0 0 72 72" xml:space="preserve">
<path fill-rule="evenodd" clip-rule="evenodd" d="M70.064,52.268c-1.101-1.258-2.297-2.443-3.535-3.567
	c-1.244-1.126-1.557-2.281-1.073-3.965c0.895-3.122,1.692-6.299,1.5-9.414C66.822,13.378,47.946-0.86,29.044,1.886
	C5.928,5.243-6.738,29.469,3.696,50.262c7.326,14.601,23.974,21.575,40.299,16.342c3.925-1.259,6.315-1.07,9.039,2.054
	c2.644,3.029,6.622,3.05,9.511,0.474c2.703-2.409,5.265-5.002,7.668-7.712C72.627,58.695,72.472,55.014,70.064,52.268z
	 M64.119,58.404c-1.643,1.512-3.217,3.106-4.729,4.748c-1.021,1.106-1.8,0.965-2.757-0.063c-1.397-1.497-3.022-2.796-4.304-4.38
	c-1.583-1.956-2.883-2.011-5.099-0.677c-15.631,9.402-35.914,0.8-39.863-16.973c-2.42-10.891,0.81-20.23,9.569-27.128
	c8.762-6.899,18.636-7.889,28.606-2.905c9.874,4.937,14.598,13.412,14.877,22.761c-0.093,5.507-0.889,9.228-2.607,12.697
	c-0.699,1.41-0.484,2.391,0.63,3.437c1.9,1.785,3.667,3.709,5.562,5.499C65.086,56.443,65.344,57.279,64.119,58.404z"/>
<path fill-rule="evenodd" clip-rule="evenodd" d="M33.434,52.711c-5.063-0.202-9.603-1.462-13.143-5.296
	c-1.068-1.157-1.18-2.013,0.299-2.838c0.729-0.406,1.448-0.854,2.101-1.374c1.472-1.173,2.61-1.406,4.305,0.055
	c2.718,2.342,6.097,3.149,9.681,2.215c1.688-0.441,3.231-1.319,3.225-3.334c-0.008-2.029-1.722-2.495-3.279-2.822
	c-2.728-0.574-5.518-0.872-8.22-1.539c-4.879-1.204-7.337-3.939-7.568-8.08c-0.298-5.344,1.896-8.977,6.545-10.844
	c6.24-2.507,14.566-0.763,19.16,4.024c0.314,0.329,0.886,0.878,0.797,1.056c-0.955,1.921-3.017,2.629-4.527,3.956
	c-0.865,0.761-1.517,0.212-2.169-0.383c-2.155-1.972-4.676-3.038-7.621-2.861c-2.015,0.122-3.842,0.902-3.97,3.137
	c-0.121,2.122,1.725,2.613,3.444,2.928c2.652,0.486,5.323,0.885,7.956,1.461c3.679,0.806,6.651,2.559,7.407,6.616
	c0.815,4.377-0.375,8.134-3.928,10.944C40.842,52.173,37.12,52.526,33.434,52.711z"/>
</svg>
