<?xml version="1.0" encoding="utf-8"?>
<!-- Generator: Adobe Illustrator 16.0.0, SVG Export Plug-In . SVG Version: 6.00 Build 0)  -->
<!DOCTYPE svg PUBLIC "-//W3C//DTD SVG 1.1//EN" "http://www.w3.org/Graphics/SVG/1.1/DTD/svg11.dtd">
<svg version="1.1" id="Capa_1" xmlns="http://www.w3.org/2000/svg" xmlns:xlink="http://www.w3.org/1999/xlink" x="0px" y="0px"
	 width="101.667px" height="116.355px" viewBox="0 0 101.667 116.355" enable-background="new 0 0 101.667 116.355"
	 xml:space="preserve">
<g>
	<g>
		<path fill-rule="evenodd" clip-rule="evenodd" fill="#1D71B8" d="M63.423,46.323c-0.457,1.252-0.864,2.367-1.303,3.568
			c-1.091-0.587-2.124-1.143-3.319-1.787c-0.683,0.994-1.346,1.959-2.141,3.115c-0.934-0.842-1.837-1.656-2.795-2.521
			c-0.906,0.813-1.789,1.602-2.82,2.525c-0.689-1.02-1.342-1.987-2.096-3.104c-1.113,0.584-2.197,1.153-3.356,1.762
			c-0.433-1.17-0.86-2.324-1.314-3.553c-1.238,0.324-2.383,0.623-3.618,0.945c-0.157-1.225-0.309-2.404-0.481-3.735
			c-1.222,0-2.443,0-3.759,0c0.174-1.28,0.326-2.397,0.5-3.681c-1.145-0.299-2.277-0.595-3.639-0.951
			c0.436-1.172,0.855-2.301,1.302-3.502c-1.12-0.571-2.13-1.086-3.34-1.703c0.725-1.032,1.419-2.024,2.178-3.105
			c-0.939-0.809-1.835-1.58-2.858-2.461c0.949-0.838,1.864-1.646,2.852-2.518c-0.717-1.002-1.404-1.962-2.184-3.051
			c1.138-0.592,2.215-1.154,3.364-1.752c-0.467-1.205-0.892-2.304-1.357-3.504c1.248-0.297,2.399-0.57,3.665-0.871
			c-0.156-1.242-0.305-2.412-0.471-3.729c1.229,0,2.447,0,3.733,0c0.174-1.295,0.33-2.461,0.497-3.709
			c1.265,0.3,2.41,0.571,3.619,0.858c0.454-1.209,0.87-2.313,1.322-3.516c1.142,0.614,2.184,1.174,3.324,1.788
			c0.69-1.023,1.351-2.002,2.118-3.137c0.929,0.85,1.794,1.641,2.78,2.541c0.934-0.828,1.844-1.633,2.834-2.51
			c0.734,1.066,1.404,2.038,2.131,3.093c1.084-0.579,2.126-1.136,3.326-1.776c0.428,1.165,0.831,2.262,1.299,3.537
			c1.18-0.289,2.318-0.568,3.635-0.893c0.161,1.221,0.314,2.378,0.484,3.666c1.255,0,2.482,0,3.761,0
			c-0.175,1.318-0.329,2.492-0.496,3.756c1.218,0.302,2.364,0.585,3.659,0.905c-0.443,1.16-0.861,2.251-1.34,3.503
			c1.107,0.57,2.196,1.131,3.367,1.733c-0.76,1.062-1.449,2.028-2.193,3.067c0.955,0.836,1.885,1.649,2.861,2.503
			c-0.988,0.853-1.886,1.626-2.859,2.466c0.712,1.01,1.393,1.975,2.176,3.086c-1.109,0.578-2.141,1.115-3.322,1.731
			c0.416,1.119,0.821,2.213,1.297,3.497c-1.258,0.32-2.429,0.619-3.656,0.932c0.172,1.248,0.325,2.367,0.494,3.601
			c-1.209,0-2.381,0-3.698,0c-0.185,1.294-0.358,2.507-0.548,3.826C65.855,46.954,64.726,46.661,63.423,46.323z M69.17,28.199
			c0.039-8.466-6.857-15.409-15.31-15.413c-8.386-0.005-15.233,6.809-15.316,15.239c-0.081,8.382,6.748,15.319,15.144,15.383
			C62.207,43.472,69.133,36.669,69.17,28.199z"/>
		<path fill-rule="evenodd" clip-rule="evenodd" fill="#1D71B8" d="M63.355,73.484c-0.672-2.14-1.354-4.274-2.011-6.419
			c-1.147-3.74-2.067-7.569-3.49-11.201c-0.985-2.52-0.037-4.113,1.499-5.812c1.159,0.635,2.287,1.253,3.57,1.956
			c0.479-1.334,0.91-2.539,1.396-3.896c1.272,0.316,2.519,0.625,3.88,0.964c0.13-0.38,0.257-0.755,0.487-1.429
			c2.333,7.615,4.587,14.975,6.965,22.736c-3.26-3.298-6.24-6.313-9.484-9.593c-0.884,4.514-1.68,8.583-2.478,12.651
			C63.579,73.456,63.468,73.47,63.355,73.484z"/>
		<path fill-rule="evenodd" clip-rule="evenodd" fill="#1D71B8" d="M32.166,70.04c2.254-7.361,4.507-14.723,6.876-22.463
			c0.194,0.716,0.282,1.04,0.406,1.498c1.286-0.315,2.577-0.633,3.933-0.967c0.473,1.313,0.908,2.521,1.402,3.896
			c1.241-0.68,2.37-1.297,3.566-1.951c1.497,1.647,2.412,3.212,1.521,5.738c-1.897,5.375-3.391,10.895-5.057,16.352
			c-0.137,0.449-0.334,0.879-0.786,1.319c-0.796-4.058-1.591-8.116-2.427-12.381c-3.132,3.173-6.118,6.197-9.105,9.222
			C32.387,70.216,32.277,70.128,32.166,70.04z"/>
		<path fill-rule="evenodd" clip-rule="evenodd" fill="#1D71B8" d="M47.102,37.138c0.689-2.158,1.324-4.335,2.094-6.463
			c0.324-0.891,0.145-1.373-0.602-1.889c-1.874-1.295-3.7-2.662-5.506-4.328c2.129,0,4.263-0.082,6.387,0.029
			c1.297,0.069,1.945-0.285,2.286-1.611c0.539-2.094,1.305-4.129,2.093-6.555c0.809,2.49,1.56,4.617,2.174,6.781
			c0.309,1.088,0.837,1.434,1.958,1.383c2.171-0.098,4.351-0.027,7.077-0.027c-1.711,1.26-3.053,2.262-4.407,3.244
			c-2.519,1.826-2.518,1.819-1.555,4.746c0.519,1.576,1.016,3.158,1.663,5.178c-2.543-1.832-4.693-3.379-6.909-4.975
			c-2.161,1.56-4.311,3.109-6.46,4.66C47.296,37.253,47.199,37.195,47.102,37.138z"/>
	</g>
</g>
<text transform="matrix(1 0 0 1 2.7715 105.3555)" fill="#1D71B8" font-family="Arial" font-size="23">(75-100%)</text>
</svg>
